<?xml version="1.0" encoding="utf-8"?>
<!-- Generator: Adobe Illustrator 26.5.0, SVG Export Plug-In . SVG Version: 6.00 Build 0)  -->
<svg version="1.1" id="Capa_2_00000109708774885409850420000000269152519360491697_"
	 xmlns="http://www.w3.org/2000/svg" xmlns:xlink="http://www.w3.org/1999/xlink" x="0px" y="0px" viewBox="0 0 300 300"
	 style="enable-background:new 0 0 300 300;" xml:space="preserve">
<style type="text/css">
	.st0{fill:#FDFDFD;}
	.st1{fill:#00AAEE;}
	.st2{fill:#01A5E7;}
</style>
<g>
	<path class="st0" d="M26.7,150.6c-1.3-7.8-0.5-12.1,7.7-12.9c7.4-0.7,11-6.9,12.2-14c1.9-12.3,3.4-24.6,5.3-36.9
		C55,67,66,55.2,84.3,52.3c3.3-0.5,9.6-3.7,9.1,3.6c-0.4,5.8,4.9,15.2-3.5,17c-13.7,3-16.6,12.5-18.2,23.4c-1.6,11.1,0.8,24-4.1,33
		c-8.2,15.2-5.2,27.3,1.6,41.1c4.9,9.9,2.4,21.3,3.4,32c0.9,10.6,4.1,19.1,15.7,22.8c11.4,3.6,5.3,13.8,4.7,20.1
		c-0.6,6.3-7.5,1.5-11,0.6c-17.8-4.6-28.1-16.8-30.2-35.2c-1-9.1-1.5-18.2-2.2-27.3c-1-11.5-5.7-20.2-18.1-21.9
		C21.2,160.3,29.6,152.5,26.7,150.6z"/>
	<path class="st1" d="M206.2,161.3c-0.2,0.4-0.2,0.9-0.5,1.1c-22.5,15.1-27,36.8-25.4,62.5c1.1,18.9-10.8,28.6-29.8,28.7
		c-7.1,0-14.1-0.2-21.2,0.1c-5.6,0.2-8.3-1.2-8.2-7.5c0-6.2,2.6-8.1,8.2-7.6c2.5,0.2,5,0,7.5,0c27.2,0,28.5-0.1,27.2-27.8
		c-1.1-22.1,4.2-39.7,22.9-52.4c7.3-4.9,7.8-10.1-0.1-14.9c-17.9-11.1-22.1-27.1-21.1-47.5c1.5-34,5-33.7-32.2-33.2
		c-7,0.1-13.7,0.7-12.4-10c0.6-4.8,2.1-6.6,6.8-6.5c10,0.2,20-0.4,29.9,0.4c13.6,1.1,22.1,9.1,23.8,22.9c1.3,10.2,1.8,20.8,1,31
		c-0.9,12.2,2.2,21.6,12.5,28.8c7.5,5.3,12.9,12.6,15.7,21.6C209.6,154.7,208.6,158.3,206.2,161.3L206.2,161.3z"/>
	<path class="st0" d="M273.4,151.4c1.4,6.1-0.6,9.8-7.7,11.7c-7.3,2-11.3,8.1-12.1,15.9c-1.4,12.4-2.2,24.8-4.3,37.1
		c-2.9,17.1-18.5,30.7-35.3,32c-3.6,0.3-5.6-0.3-5.4-4.3c0.3-8.5-3.2-18.2,10.4-21c6.9-1.4,9.3-8.9,10-15.9
		c1.8-19.7-0.5-40.3,14.3-56.8c1.2-1.4,0.9-2.7-0.4-4.2c-11.5-12.9-9.8-29.2-11.7-44.7c-1.5-12.2-2.1-24.7-18.8-28.3
		c-8.1-1.7-3.1-11.4-3.5-17.4c-0.4-6.5,5.2-3.7,8.3-3.3c17.2,2.3,28.7,13,31.9,30.3c2.3,12.7,3.8,25.5,5.8,38.2
		c1.1,6.8,3.1,14.2,10.4,15.7C274.5,138.4,274,144.3,273.4,151.4L273.4,151.4z"/>
	<path class="st2" d="M142.9,103.3c-1.7,7.8-6.2,12.2-13.9,11.2c-7.1-0.9-11-5.7-10.4-12.9c0.7-7.9,5.8-11.7,13.6-10.8
		C139.4,91.6,142.4,96.6,142.9,103.3L142.9,103.3z"/>
</g>
</svg>
