<?xml version="1.0" encoding="UTF-8"?>
<svg id="Capa_2" data-name="Capa 2" xmlns="http://www.w3.org/2000/svg" viewBox="0 0 300 300">
  <defs>
    <style>
      .cls-1 {
        fill: #081b29;
      }

      .cls-2 {
        fill: #fdfdfd;
      }

      .cls-3 {
        fill: #01a5e7;
      }

      .cls-4 {
        fill: #0ae;
      }
    </style>
  </defs>
  <g id="Capa_1-2" data-name="Capa 1">
    <path class="cls-1" d="M0,299.9c0-99.94,0-199.87,0-299.81,98.64,0,197.27,.02,295.91-.1,3.42,0,4.1,.67,4.09,4.09-.12,97.27-.12,194.54,0,291.81,0,3.42-.67,4.1-4.09,4.09-98.64-.12-197.27-.1-295.91-.1Z"/>
    <g>
      <path class="cls-2" d="M26.71,150.56c-1.26-7.84-.48-12.12,7.72-12.94,7.38-.74,11.05-6.93,12.16-14.03,1.92-12.28,3.43-24.63,5.34-36.91,3.06-19.64,14.08-31.43,32.4-34.37,3.33-.53,9.55-3.72,9.06,3.62-.39,5.81,4.88,15.17-3.48,17.03-13.69,3.04-16.59,12.5-18.2,23.43-1.64,11.07,.78,23.95-4.12,33.05-8.18,15.2-5.18,27.31,1.61,41.05,4.89,9.88,2.41,21.27,3.36,31.97,.94,10.59,4.06,19.1,15.67,22.79,11.36,3.61,5.31,13.77,4.69,20.13-.61,6.33-7.5,1.54-11.04,.62-17.84-4.64-28.1-16.77-30.23-35.19-1.05-9.07-1.5-18.2-2.25-27.31-.95-11.47-5.73-20.22-18.07-21.86-10.14-1.35-1.73-9.1-4.62-11.08Z"/>
      <path class="cls-4" d="M206.19,161.29c-.16,.38-.21,.93-.5,1.13-22.53,15.15-26.97,36.85-25.44,62.48,1.13,18.94-10.84,28.58-29.76,28.69-7.07,.04-14.15-.23-21.2,.07-5.56,.24-8.29-1.17-8.25-7.51,.04-6.25,2.64-8.07,8.25-7.58,2.48,.21,4.99,.03,7.48,.03,27.21-.02,28.53-.08,27.2-27.76-1.06-22.09,4.19-39.69,22.85-52.36,7.28-4.95,7.75-10.08-.06-14.92-17.89-11.09-22.06-27.05-21.13-47.54,1.54-34.03,4.97-33.67-32.17-33.22-7,.09-13.68,.69-12.41-9.97,.57-4.77,2.11-6.6,6.79-6.5,9.97,.23,20-.38,29.91,.44,13.56,1.13,22.05,9.13,23.8,22.91,1.3,10.24,1.76,20.76,.99,31.04-.92,12.22,2.22,21.62,12.49,28.85,7.54,5.3,12.91,12.63,15.71,21.6-1.12,3.55-2.1,7.17-4.55,10.13Z"/>
      <path class="cls-2" d="M273.44,151.4c1.35,6.08-.59,9.77-7.72,11.73-7.32,2.01-11.28,8.12-12.14,15.88-1.36,12.38-2.22,24.84-4.27,37.1-2.86,17.15-18.54,30.72-35.33,31.96-3.57,.26-5.58-.27-5.43-4.32,.32-8.52-3.23-18.17,10.44-20.97,6.91-1.41,9.32-8.9,9.96-15.93,1.8-19.66-.47-40.33,14.26-56.76,1.25-1.39,.93-2.72-.4-4.22-11.46-12.93-9.78-29.23-11.69-44.74-1.5-12.15-2.07-24.7-18.8-28.27-8.12-1.73-3.11-11.43-3.46-17.39-.38-6.47,5.25-3.66,8.31-3.26,17.24,2.26,28.7,12.99,31.88,30.28,2.33,12.67,3.79,25.49,5.76,38.22,1.05,6.8,3.08,14.16,10.37,15.69,9.36,1.96,8.8,7.88,8.25,15Z"/>
      <path class="cls-3" d="M142.87,103.28c-1.7,7.8-6.21,12.18-13.95,11.24-7.1-.86-11.03-5.73-10.4-12.89,.69-7.89,5.85-11.68,13.58-10.84,7.26,.8,10.35,5.83,10.77,12.48Z"/>
    </g>
  </g>
</svg>